<?xml version="1.0" encoding="iso-8859-1"?>
<!-- Generator: Adobe Illustrator 19.0.0, SVG Export Plug-In . SVG Version: 6.00 Build 0)  -->
<svg version="1.1" id="Capa_1" xmlns="http://www.w3.org/2000/svg" xmlns:xlink="http://www.w3.org/1999/xlink" x="0px" y="0px"
	 viewBox="0 0 469.333 469.333" style="enable-background:new 0 0 469.333 469.333;" xml:space="preserve">
<path style="fill:#303C42;" d="M447.432,28.678c-1.063-3.208-3.583-5.729-6.792-6.791c-2.625-0.865-64.582-21.166-96.56-21.843
	C289.665-1.384,240.292,32.48,221.334,83.645c-5.271,14.218-16.979,25.676-32.145,31.458c-34.082,13-61.102,40.009-74.081,74.092
	c-5.792,15.166-17.25,26.885-31.478,32.155C32.506,240.287-1.098,289.598,0.027,344.045c0.667,32.01,21.229,93.81,22.104,96.425
	c1.062,3.177,3.562,5.667,6.75,6.729c2.604,0.875,64.373,21.427,96.372,22.104c0.917,0.021,1.812,0.031,2.729,0.031
	c53.353,0,101.372-33.332,120.017-83.633c5.271-14.218,16.979-25.676,32.145-31.458c34.082-13,61.102-40.009,74.081-74.092
	c5.792-15.166,17.25-26.885,31.478-32.155c51.124-18.937,84.727-68.248,83.602-122.695
	C468.639,93.312,448.307,31.303,447.432,28.678z"/>
<path style="fill:#D3DF44;" d="M378.285,227.99c-19.979,7.396-36.021,23.635-43.979,44.552
	c-10.833,28.417-33.354,50.927-61.75,61.76c-20.917,7.969-37.167,24-44.563,43.979c-15.812,42.646-56.833,71.198-102.292,69.688
	c-23.875-0.5-69.729-14.49-85-19.354c-4.854-15.271-18.854-61.125-19.354-85.021c-0.938-45.365,27.063-86.458,69.688-102.25
	c19.979-7.396,36.021-23.635,43.979-44.552c10.833-28.417,33.354-50.927,61.75-61.76c20.917-7.969,37.167-24,44.562-43.979
	C257.139,48.417,298.618,20,343.618,21.365c23.875,0.5,69.833,14.313,85.208,19.135c4.813,15.375,18.646,61.344,19.146,85.24
	C448.91,171.104,420.91,212.198,378.285,227.99z"/>
<path style="opacity:0.1;enable-background:new    ;" d="M428.827,40.5c-0.578-0.181-1.473-0.452-2.135-0.658
	c5.391,19.586,11.184,43.91,11.504,59.23c0.938,45.365-27.063,86.458-69.688,102.25c-19.979,7.396-36.021,23.635-43.979,44.552
	c-10.833,28.417-33.354,50.927-61.75,61.76c-20.917,7.969-37.167,24-44.563,43.979c-15.813,42.646-56.833,71.198-102.292,69.688
	c-23.022-0.482-66.216-13.43-82.983-18.723c3.065,10.99,6.01,20.531,7.76,26.035c15.271,4.865,61.125,18.854,85,19.354
	c45.458,1.51,86.479-27.042,102.292-69.688c7.396-19.979,23.646-36.01,44.563-43.979c28.396-10.833,50.917-33.344,61.75-61.76
	c7.958-20.917,24-37.156,43.979-44.552c42.625-15.792,70.625-56.885,69.688-102.25C447.473,101.844,433.639,55.875,428.827,40.5z"/>
<circle style="fill:#303C42;" cx="234.667" cy="234.667" r="64"/>
<circle style="fill:#FFCE34;" cx="234.667" cy="234.667" r="42.667"/>
<circle style="fill:#303C42;" cx="128" cy="341.333" r="64"/>
<circle style="fill:#FFCE34;" cx="128" cy="341.333" r="42.667"/>
<circle style="fill:#303C42;" cx="341.333" cy="128" r="64"/>
<circle style="fill:#FFCE34;" cx="341.333" cy="128" r="42.667"/>
<path style="opacity:0.1;enable-background:new    ;" d="M341.327,149.333c-19.818,0-36.381-13.648-41.152-32
	c-0.892,3.43-1.514,6.962-1.514,10.667c0,23.531,19.146,42.667,42.667,42.667c23.521,0,42.667-19.135,42.667-42.667
	c0-3.704-0.622-7.237-1.514-10.667C377.708,135.685,361.144,149.333,341.327,149.333z"/>
<path style="opacity:0.1;enable-background:new    ;" d="M234.663,255.997c-19.818,0-36.382-13.648-41.152-32
	c-0.892,3.43-1.514,6.962-1.514,10.667c0,23.531,19.146,42.667,42.667,42.667s42.667-19.135,42.667-42.667
	c0-3.704-0.622-7.237-1.514-10.667C271.045,242.348,254.481,255.997,234.663,255.997z"/>
<path style="opacity:0.1;enable-background:new    ;" d="M128,362.66c-19.818,0-36.382-13.648-41.152-32
	c-0.892,3.43-1.514,6.962-1.514,10.667c0,23.531,19.146,42.667,42.667,42.667s42.667-19.135,42.667-42.667
	c0-3.704-0.622-7.237-1.514-10.667C164.382,349.012,147.818,362.66,128,362.66z"/>
<linearGradient id="SVGID_1_" gradientUnits="userSpaceOnUse" x1="-63.6609" y1="616.7141" x2="-48.4057" y2="609.601" gradientTransform="matrix(21.3333 0 0 -21.3333 1430.111 13315.2227)">
	<stop  offset="0" style="stop-color:#FFFFFF;stop-opacity:0.2"/>
	<stop  offset="1" style="stop-color:#FFFFFF;stop-opacity:0"/>
</linearGradient>
<path style="fill:url(#SVGID_1_);" d="M447.432,28.678c-1.063-3.208-3.583-5.729-6.792-6.791
	c-2.625-0.865-64.582-21.166-96.56-21.843C289.665-1.384,240.292,32.48,221.334,83.645c-5.271,14.218-16.979,25.676-32.145,31.458
	c-34.082,13-61.102,40.009-74.081,74.092c-5.792,15.166-17.25,26.885-31.478,32.155C32.506,240.287-1.098,289.598,0.027,344.045
	c0.667,32.01,21.229,93.81,22.104,96.425c1.062,3.177,3.562,5.667,6.75,6.729c2.604,0.875,64.373,21.427,96.372,22.104
	c0.917,0.021,1.812,0.031,2.729,0.031c53.353,0,101.372-33.332,120.017-83.633c5.271-14.218,16.979-25.676,32.145-31.458
	c34.082-13,61.102-40.009,74.081-74.092c5.792-15.166,17.25-26.885,31.478-32.155c51.124-18.937,84.727-68.248,83.602-122.695
	C468.639,93.312,448.307,31.303,447.432,28.678z"/>
<g>
</g>
<g>
</g>
<g>
</g>
<g>
</g>
<g>
</g>
<g>
</g>
<g>
</g>
<g>
</g>
<g>
</g>
<g>
</g>
<g>
</g>
<g>
</g>
<g>
</g>
<g>
</g>
<g>
</g>
</svg>
